Coordinates
version=1
nRows=18
nColumns=22
inDegrees=yes

Units are S.I. units (second, meters, Newtons, ...)
If the header above contains a line with 'inDegrees', this indicates whether rotational values are in degrees (yes) or radians (no).

endheader
time	pelvis_tilt	pelvis_list	pelvis_rotation	pelvis_tx	pelvis_ty	pelvis_tz	hip_flexion_r	hip_adduction_r	hip_rotation_r	knee_angle_r	ankle_angle_r	subtalar_angle_r	hip_flexion_l	hip_adduction_l	hip_rotation_l	knee_angle_l	ankle_angle_l	subtalar_angle_l	lumbar_extension	lumbar_bending	lumbar_rotation
      1.78000000	      2.42466467	     -7.42579694	    -43.19793511	      0.05140753	      0.89568894	     -0.33117478	     21.70624912	      5.68639427	    -26.59159921	    -18.14683861	     -0.01209540	     -6.84077789	    -20.17543513	     -9.51166884	     -8.62475788	    -30.22518126	     19.31775314	      2.17010631	    -13.68288816	      8.47801775	    -23.15739453
      1.79000000	      2.23090901	     -7.71001382	    -43.74617144	      0.05913705	      0.89673284	     -0.31924383	     21.40410423	      6.18004048	    -26.31525398	    -19.35390032	     -0.28839108	     -8.33377758	    -20.15015513	     -9.91287837	     -7.98898400	    -31.85090775	     16.26689690	      3.25736980	    -13.41859771	      8.67237407	    -22.87876410
      1.80000000	      2.06299795	     -7.95405186	    -44.31628427	      0.06666687	      0.89801698	     -0.30732769	     21.06076892	      6.68345929	    -25.82292324	    -20.46647523	     -0.25845467	     -9.61938085	    -19.92345266	    -10.25072485	     -7.18402272	    -33.67283928	     13.00348483	      4.21912409	    -13.16836807	      8.80553877	    -22.55040274
      1.81000000	      1.95649692	     -8.14664307	    -44.88442012	      0.07393257	      0.89947611	     -0.29560611	     20.68668027	      7.13841007	    -25.16557952	    -21.52801194	      0.01974940	    -10.65723136	    -19.47083976	    -10.49999221	     -6.22268763	    -35.72487654	      9.62740826	      4.96307626	    -12.97390988	      8.84620000	    -22.22335262
      1.82000000	      1.91642784	     -8.28469437	    -45.41305633	      0.08093417	      0.90104472	     -0.28421609	     20.27501416	      7.52841197	    -24.37363329	    -22.51145853	      0.52368936	    -11.34318713	    -18.77285715	    -10.64454533	     -5.04371607	    -38.00416053	      6.28529203	      5.31442365	    -12.84589750	      8.79615232	    -21.92679499
      1.83000000	      1.86072760	     -8.42317679	    -45.86112686	      0.08771581	      0.90258576	     -0.27320970	     19.83320219	      7.92034061	    -23.66423692	    -23.38873385	      1.22339234	    -11.89799832	    -17.79228437	    -10.81649875	     -3.72151561	    -40.53966479	      3.09307481	      5.46418421	    -12.75608656	      8.77760577	    -21.65969861
      1.84000000	      1.78422233	     -8.56780355	    -46.21241085	      0.09422317	      0.90402721	     -0.26265888	     19.35763405	      8.32544336	    -23.02672488	    -24.13344193	      2.05251765	    -12.33157497	    -16.52219241	    -11.02998490	     -2.30428657	    -43.32236811	      0.18558193	      5.39226468	    -12.71776400	      8.79922679	    -21.47946068
      1.85000000	      1.68358723	     -8.71249247	    -46.47453995	      0.10050513	      0.90536749	     -0.25255685	     18.84292301	      8.72855751	    -22.53377076	    -24.73078354	      2.93343990	    -12.56761497	    -15.00143288	    -11.24429837	     -0.77993718	    -46.25411484	     -2.36870463	      5.10455107	    -12.71596061	      8.85718198	    -21.30926748
      1.86000000	      1.53136075	     -8.87166587	    -46.67026886	      0.10650287	      0.90654963	     -0.24283102	     18.29060566	      9.17755725	    -22.15544321	    -25.15576152	      3.82800897	    -12.73787312	    -13.23718891	    -11.52603394	      0.68503132	    -49.30866181	     -4.45108013	      4.76878811	    -12.74177018	      8.97808716	    -21.21332305
      1.87000000	      1.33219938	     -9.07024675	    -46.84454831	      0.11227558	      0.90766727	     -0.23333607	     17.65491455	      9.69126740	    -21.91119164	    -25.39079246	      4.68406576	    -12.82851908	    -11.33644888	    -11.86774312	      2.04620648	    -52.34692100	     -6.01280449	      4.44984507	    -12.80168782	      9.16893405	    -21.09493612
      1.88000000	      1.08686729	     -9.30362701	    -47.03660451	      0.11780399	      0.90875528	     -0.22396451	     16.93037202	     10.28030641	    -21.75265892	    -25.42696207	      5.46916009	    -12.86051976	     -9.34417809	    -12.27397067	      3.24082303	    -55.28871403	     -6.99651754	      4.17326416	    -12.88636293	      9.41458242	    -20.93874605
      1.89000000	      0.79603003	     -9.56587815	    -47.27700146	      0.12307334	      0.90985241	     -0.21461331	     16.11583933	     10.95166477	    -21.63709057	    -25.26557286	      6.14976796	    -12.84394831	     -7.29776401	    -12.74572358	      4.24728073	    -58.06514837	     -7.38846795	      3.89469659	    -12.98025929	      9.69700698	    -20.73001343
      1.90000000	      0.46051267	     -9.83112540	    -47.59717800	      0.12805958	      0.91096985	     -0.20522884	     15.23639759	     11.69321516	    -21.50703532	    -24.92424320	      6.71385177	    -12.78876829	     -5.20846066	    -13.26292124	      5.06420957	    -60.62762286	     -7.23518472	      3.50068086	    -13.06210296	      9.98941071	    -20.44671601
      1.91000000	      0.09829623	    -10.07706469	    -48.02804136	      0.13274760	      0.91212664	     -0.19576367	     14.30758980	     12.47663957	    -21.30932036	    -24.44258073	      7.20521796	    -12.68391498	     -3.10348122	    -13.79437780	      5.68276440	    -62.93660473	     -6.62627680	      2.79674891	    -13.12611519	     10.25348152	    -20.06905075
      1.92000000	     -0.28522193	    -10.31104780	    -48.58613689	      0.13711607	      0.91337605	     -0.18618798	     13.31026144	     13.31732896	    -20.95465295	    -23.80624053	      7.49501913	    -12.55683984	     -1.02482058	    -14.33414409	      6.13135740	    -64.95922124	     -5.65134934	      1.93409672	    -13.18272411	     10.48909077	    -19.61538241
      1.93000000	     -0.66330173	    -10.49273348	    -49.30260517	      0.14116492	      0.91470743	     -0.17648225	     12.27777124	     14.14943267	    -20.42583507	    -23.08745404	      7.71343878	    -12.38366465	      1.00683932	    -14.82709149	      6.39044257	    -66.66994228	     -4.40264020	      0.67644750	    -13.21765926	     10.64111444	    -19.03496555
      1.94000000	     -1.00607295	    -10.63090389	    -50.17627984	      0.14492032	      0.91615069	     -0.16668097	     11.19219875	     14.94113839	    -19.70888981	    -22.32357374	      7.90208193	    -12.16404676	      2.93921863	    -15.24818794	      6.47730473	    -68.05642949	     -2.91713998	     -0.95148795	    -13.26310093	     10.69815858	    -18.34219459
      1.95000000	     -1.31102189	    -10.71089874	    -51.20154002	      0.14839626	      0.91770183	     -0.15679743	     10.05763544	     15.67206359	    -18.79384957	    -21.50508451	      8.01260906	    -11.92352935	      4.76495449	    -15.58225214	      6.41283205	    -69.10826486	     -1.25857601	     -2.79716821	    -13.29909266	     10.65208053	    -17.56464505
